<?xml version="1.0" standalone="no"?>
<!DOCTYPE svg PUBLIC "-//W3C//DTD SVG 20010904//EN"
 "http://www.w3.org/TR/2001/REC-SVG-20010904/DTD/svg10.dtd">
<svg version="1.0" xmlns="http://www.w3.org/2000/svg"
 width="16.000000pt" height="16.000000pt" viewBox="0 0 16.000000 16.000000"
 preserveAspectRatio="xMidYMid meet">
<metadata>
Created by potrace 1.11, written by Peter Selinger 2001-2013
</metadata>
<g transform="translate(0.000000,16.000000) scale(0.002286,-0.002286)"
fill="#000000" stroke="none">
<path d="M5038 6995 c-1 -1 -30 -5 -63 -8 -241 -25 -513 -116 -724 -244 -177
-107 -261 -181 -651 -573 -1443 -1452 -1431 -1439 -1562 -1665 -84 -143 -170
-379 -194 -533 -3 -20 -8 -40 -10 -43 -18 -29 -26 -402 -12 -529 22 -189 77
-375 171 -570 165 -346 442 -631 786 -808 l65 -33 54 53 c55 55 726 727 729
731 1 1 -13 2 -30 3 -121 2 -258 41 -372 104 -229 127 -391 361 -430 625 -6
44 -7 176 -1 215 14 86 20 111 43 174 56 154 108 227 303 426 78 80 323 329
544 554 850 867 976 990 1053 1036 139 81 291 122 446 121 344 -3 655 -227
774 -555 43 -120 60 -309 39 -434 -20 -121 -82 -267 -154 -363 -22 -30 -150
-164 -286 -299 -135 -135 -246 -252 -246 -261 0 -9 7 -36 16 -60 24 -69 71
-258 79 -318 4 -30 9 -63 11 -75 15 -72 21 -332 9 -446 -8 -90 -17 -155 -20
-160 -2 -3 -6 -26 -10 -50 -3 -25 -15 -78 -26 -119 -11 -40 -18 -75 -16 -77 2
-2 273 267 604 599 610 612 674 682 781 862 113 190 203 449 227 650 4 32 9
68 12 80 6 28 6 340 -1 362 -3 10 -8 38 -11 63 -32 273 -160 591 -327 815
-101 136 -262 299 -383 391 -233 176 -511 295 -795 340 -19 3 -46 7 -60 10
-28 6 -356 14 -362 9z"/>
<path d="M3780 4607 c-215 -214 -389 -391 -388 -392 2 -1 33 -5 69 -8 228 -19
454 -145 596 -332 45 -59 109 -182 128 -245 46 -154 52 -333 16 -457 -5 -18
-7 -33 -3 -33 3 0 1 -5 -6 -12 -7 -7 -12 -19 -12 -28 0 -22 -64 -152 -102
-208 -17 -25 -62 -78 -99 -117 -163 -169 -1599 -1598 -1641 -1632 -229 -185
-579 -226 -854 -98 -313 144 -500 451 -488 803 1 53 6 108 9 122 3 14 8 35 11
48 18 87 81 222 142 304 22 29 152 165 290 302 l250 249 -28 82 c-29 87 -65
232 -75 305 -3 25 -8 59 -11 75 -3 17 -7 46 -10 65 -7 57 -6 309 1 385 8 92
42 280 61 345 8 29 14 54 12 56 -9 9 -1209 -1207 -1264 -1281 -155 -208 -253
-412 -313 -652 -71 -285 -74 -557 -9 -833 11 -47 21 -92 23 -100 18 -84 120
-318 188 -430 114 -187 307 -403 472 -526 232 -174 540 -306 785 -338 25 -3
56 -9 70 -12 41 -9 340 -12 405 -4 113 14 150 21 235 41 174 41 348 112 505
205 174 102 263 180 635 554 942 947 1356 1369 1410 1435 212 260 344 570 387
910 10 77 10 360 1 445 -44 388 -244 795 -522 1064 -122 118 -271 225 -413
297 l-73 37 -390 -391z"/>
</g>
</svg>
